<?xml version="1.0" encoding="utf-8"?>
<!-- Generator: Adobe Illustrator 22.1.0, SVG Export Plug-In . SVG Version: 6.00 Build 0)  -->
<svg version="1.1" id="Layer_1" xmlns="http://www.w3.org/2000/svg" xmlns:xlink="http://www.w3.org/1999/xlink" x="0px" y="0px"
	 viewBox="0 0 1706.2 798.9" style="enable-background:new 0 0 1706.2 798.9;" xml:space="preserve">
<style type="text/css">
	.st0{fill:#FFFFFF;}
</style>
<title>Clouds</title>
<path class="st0" d="M312.7,46.4l-59.4,13.9c-2.2,0.5-4.3,1.2-6.4,2L172,92l-31.8,14.2c-4.1,1.8-8.5,3.1-13,3.6l-46.5,5.7
	c-7.7,0.9-15,3.8-21.3,8.4l-24.2,17.7c-4.8,3.5-8.9,7.9-12,13L6.6,182.1C2.3,189.2,0,197.4,0,205.7l0,0c0,10.5,3.6,20.7,10.3,28.8
	l9.4,11.5c7.8,9.5,19.2,15.5,31.5,16.5l51.5,4.1c2.8,0.2,5.7,0.2,8.5-0.1l49.4-5.3c1.6-0.2,3.2-0.3,4.8-0.3h68.8
	c2.5,0,5,0.2,7.5,0.6l28.6,4.8c2.5,0.4,5,0.6,7.5,0.6H315c2,0,4-0.1,6-0.4l62.8-8.3c1.5-0.2,3-0.5,4.5-0.8l50.7-12
	c14.4-3.4,26.3-13.7,31.7-27.5l5.6-14.1c5.4-13.7,3.9-29.3-4.2-41.6L449,127l-27.6-41.8c-6-9.1-15.2-15.8-25.8-18.7l-34.9-9.7
	c-1.8-0.5-3.7-1.1-5.4-1.9l-14.8-6.2C331.8,45,322,44.2,312.7,46.4z"/>
<path class="st0" d="M1125,325.7c0,13.5-7.6,30.3-15,42.3s-33.6,24.2-47,33.9c-19.3,14-21.6,6.4-50,13.5c-22.6,5.7-45.9-1.7-72-1.7
	c-29.7,0-94-0.4-119-7.6c-27.1-7.9-34.4-14.7-52.4-28.9c-11-8.7-19.8-18.3-26.2-28.7c-7.4-12-11.4-11-11.4-24.5
	c0-20.2,26.3-29.4,42-45.7s14.1-18.1,41-27.9c18.5-6.8,30-29.5,52-32.2c12.3-1.5,41-10.2,54-10.2c26.8,0,52.9,8.4,76,14.4
	s40.8,24.9,58,35.5c20.6,12.8,46.4,17.3,55,34.7C1115,302.7,1125,314.7,1125,325.7z"/>
<path class="st0" d="M698,701c0,17.9-22.5,36.1-34,52s-59.1,21.2-80,34c-30.2,18.5-14.6-0.5-59,9c-35.3,7.5-87.2-2-128-2
	c-46.4,0-95.9-16.4-135-26c-42.4-10.4-42,9-80-10c-18.4-9.2-31.2-23.9-41.2-37.6c-11.5-15.9-17.8-14.6-17.8-32.5
	c0-26.8-16.6-45.2,8-66.9s52.9-38.9,95-52c28.9-9,73.5-18,107.9-21.5c19.2-2,64-13.5,84.4-13.5c41.9,0,118.6,7.1,154.7,15
	s60.1,34.9,87,49c32.2,17,40.1,25.2,53.6,48.3C721.3,659.6,698,686.4,698,701z"/>
<path class="st0" d="M1248,115.7c0-21.1,17.8-42.6,26.8-61.4s46.6-25,63.2-40.2c23.8-21.9,11.5,0.6,46.6-10.6
	c27.9-8.9,68.9,2.4,101,2.4c36.7,0,75.7,19.4,106.6,30.7c33.4,12.3,33.2-10.6,63.2,11.8c14.6,10.9,24.6,28.2,32.5,44.5
	c9.1,18.8,14.1,17.2,14.1,38.4c0,31.6,13.1,53.4-6.3,79s-41.8,46-75,61.4c-22.8,10.6-58,21.2-85.2,25.4
	c-15.2,2.3-50.5,15.9-66.6,15.9c-33.1,0-93.6-8.4-122.1-17.7s-47.5-41.2-68.7-57.9c-25.4-20-31.6-29.7-42.3-57.1
	C1229.6,164.5,1248,132.9,1248,115.7z"/>
<path class="st0" d="M1173,651.7c0-15.4,8.7-34.6,17.1-48.2s38.3-27.6,53.6-38.6c22-15.9,24.6-7.3,57-15.4
	c25.8-6.5,52.3,1.9,82.1,1.9c33.9,0,107.1,0.4,135.7,8.7c30.9,9,39.3,16.8,59.7,33c12.5,9.9,22.6,20.9,29.9,32.7
	c8.4,13.7,13,12.5,13,28c0,23-30,33.5-47.9,52.1s-16,20.6-46.7,31.8c-21.1,7.7-34.2,33.6-59.3,36.7c-14,1.7-46.7,11.6-61.6,11.6
	c-30.6,0-60.3-9.6-86.6-16.4s-46.5-28.4-66.1-40.5c-23.5-14.6-52.8-19.7-62.7-39.6C1184.4,677.9,1173,664.3,1173,651.7z"/>
</svg>
